<?xml version="1.0" encoding="UTF-8"?>
<svg xmlns="http://www.w3.org/2000/svg" xmlns:xlink="http://www.w3.org/1999/xlink" width="18px" height="16px" viewBox="0 0 18 16" version="1.1">
<g id="surface1">
<path style=" stroke:none;fill-rule:nonzero;fill:rgb(6.666667%,52.156866%,99.607843%);fill-opacity:1;" d="M 4.070312 1.328125 C 6.066406 2.835938 8.210938 5.890625 9 7.53125 C 9.789062 5.890625 11.933594 2.835938 13.929688 1.328125 C 15.367188 0.242188 17.699219 -0.597656 17.699219 2.078125 C 17.699219 2.613281 17.394531 6.570312 17.214844 7.210938 C 16.59375 9.445312 14.332031 10.015625 12.320312 9.671875 C 15.839844 10.273438 16.734375 12.269531 14.800781 14.265625 C 11.128906 18.058594 9.523438 13.3125 9.109375 12.097656 C 9.035156 11.875 9 11.773438 9 11.859375 C 9 11.773438 8.964844 11.875 8.890625 12.097656 C 8.476562 13.3125 6.871094 18.058594 3.199219 14.265625 C 1.265625 12.269531 2.160156 10.273438 5.679688 9.671875 C 3.667969 10.015625 1.402344 9.445312 0.785156 7.210938 C 0.605469 6.570312 0.300781 2.613281 0.300781 2.078125 C 0.300781 -0.597656 2.632812 0.242188 4.070312 1.328125 Z M 4.070312 1.328125 "/>
</g>
</svg>
